<?xml version="1.0" encoding="utf-8"?>
<!-- Uploaded to SVGRepo https://www.svgrepo.com -->
<svg version="1.2" baseProfile="tiny" id="Layer_1" xmlns="http://www.w3.org/2000/svg" xmlns:xlink="http://www.w3.org/1999/xlink"
	 x="0px" y="0px" viewBox="0 0 256 256" xml:space="preserve">
<path id="_x31_" d="M225.3,72.2c6-6.8,9.3-15.7,9.3-25.3c0-11.2-4.8-21.3-12-28.3l5-7.3l-12-8.2l-5,7.5c-4.6-1.8-9.3-2.7-14.6-2.7
	c-12.8,0-24,6.2-31,15.5c-24.2-8.5-50.7-8.5-75.1,0c-7.1-9.3-18.2-15.3-31-15.3c-6,0-11.6,1.4-16.7,3.9l-6-8.5L24.2,12l6.2,8.7
	c-6.6,7.1-10.5,16.4-10.5,26.7c0,9.5,3.5,18.2,9.1,25.1C2.8,115.4,6.9,172,42.5,210.6c2.9,3.1,6.2,6.2,9.3,8.9V250h150.6v-30.5
	c0.9-0.9,1.8-1.6,2.9-2.5C246,179,253.1,117.9,225.3,72.2z M193.3,204c-39.9,36.8-101.8,33.7-138-5.8
	c-29.9-32.4-33.7-79.6-12.8-115.9c4.8-8.5,11-16.2,18.4-23c10.7-9.8,22.8-16.9,35.8-20.9c19.9-6.4,41.3-6.4,61,0.2
	c15.5,5,29.9,14.1,41.8,26.9c4.8,5.2,9.1,11,12.6,16.9C234.6,121.3,227.8,172.2,193.3,204z M126.1,48.9c-3.8,0-6.8,3-6.8,6.8v76.2
	H70.4c-3.8,0-6.8,3-6.8,6.8s3,6.8,6.8,6.8h54.9c0.3,0,0.7,0.1,1,0.1c3.8,0,6.8-3,6.8-6.8V55.7C133,51.9,129.9,48.9,126.1,48.9z"/>
</svg>
