<?xml version="1.0" encoding="iso-8859-1"?>
<!-- Generator: Adobe Illustrator 16.0.0, SVG Export Plug-In . SVG Version: 6.00 Build 0)  -->
<!DOCTYPE svg PUBLIC "-//W3C//DTD SVG 1.1//EN" "http://www.w3.org/Graphics/SVG/1.1/DTD/svg11.dtd">
<svg version="1.1" id="Capa_1" xmlns="http://www.w3.org/2000/svg" xmlns:xlink="http://www.w3.org/1999/xlink" x="0px" y="0px"
	 width="598.707px" height="598.707px" viewBox="0 0 598.707 598.707" style="enable-background:new 0 0 598.707 598.707;"
	 xml:space="preserve">
<g>
	<g>
		<path d="M55.797,598.207c7.134,0,14.096-1.447,20.693-4.301l95.474-41.307c10.314-3.002,19.675-8.531,27.337-16.193l378.59-378.59
			c22.669-22.668,22.669-59.553,0-82.222L520.347,18.05C509.366,7.069,494.765,1.021,479.236,1.021s-30.13,6.048-41.111,17.029
			l-27.165,27.165l-37.891-38.35c-4.008-4.057-9.469-6.348-15.173-6.365c-0.021,0-0.042,0-0.063,0c-5.68,0-11.13,2.256-15.146,6.273
			L118.607,230.853c-8.365,8.365-8.365,21.928,0,30.293c4.183,4.182,9.665,6.273,15.146,6.273c5.481,0,10.963-2.091,15.146-6.273
			L299.355,110.69l23.065,23.065L59.536,396.641c-8.125,8.123-13.854,18.162-16.712,29.217L6.733,528.98
			c-5.561,15.887-3.079,33.549,6.638,47.246C23.137,589.99,38.997,598.207,55.797,598.207z M82.852,441.172l72.107,72.107
			L59.478,554.59c-1.236,0.533-2.48,0.777-3.681,0.777c-5.934,0-10.827-5.955-8.629-12.236L82.852,441.172z M490.055,48.343
			l57.543,57.543c5.975,5.975,5.975,15.663,0,21.638L188.693,486.428l-79.181-79.18L468.417,48.343
			c2.988-2.988,6.903-4.481,10.819-4.481S487.067,45.355,490.055,48.343z M329.648,80.397l28.093-28.092l22.925,23.204
			l-27.953,27.954L329.648,80.397z"/>
		<path d="M55.797,598.707c-16.962,0-32.975-8.296-42.833-22.191c-9.811-13.829-12.317-31.661-6.703-47.7l36.091-103.123
			c2.863-11.082,8.688-21.264,16.831-29.405l262.531-262.532l-22.358-22.358L149.253,261.499c-4.141,4.14-9.646,6.42-15.5,6.42
			c-5.855,0-11.359-2.28-15.5-6.42c-8.547-8.547-8.547-22.453,0-31L342.333,6.42c4.14-4.14,9.645-6.42,15.5-6.42
			c5.86,0.018,11.52,2.392,15.592,6.514l37.537,37.993l26.81-26.81c11.076-11.076,25.802-17.175,41.465-17.175
			s30.389,6.1,41.465,17.175l57.543,57.544c11.059,11.058,17.148,25.784,17.148,41.465s-6.09,30.406-17.148,41.464l-378.59,378.59
			c-7.66,7.66-17.187,13.304-27.551,16.32l-95.415,41.285C70.028,597.246,62.999,598.707,55.797,598.707z M299.355,109.983
			l23.772,23.772L59.889,396.994c-8.017,8.016-13.751,18.04-16.582,28.988L7.205,529.146c-5.507,15.733-3.05,33.227,6.574,46.792
			c9.672,13.631,25.38,21.77,42.018,21.77c7.064,0,13.96-1.434,20.494-4.26l95.474-41.307c10.262-2.991,19.641-8.547,27.182-16.088
			l378.59-378.59c10.869-10.869,16.855-25.344,16.855-40.757s-5.986-29.889-16.855-40.758l-57.543-57.544
			C509.106,7.517,494.631,1.521,479.236,1.521s-29.87,5.996-40.758,16.882l-27.521,27.521L372.713,7.217
			c-3.887-3.935-9.288-6.2-14.818-6.217c-5.651,0-10.905,2.176-14.855,6.127L118.96,231.206c-3.951,3.951-6.127,9.205-6.127,14.793
			s2.176,10.842,6.127,14.793c3.952,3.951,9.205,6.127,14.793,6.127c5.587,0,10.841-2.176,14.793-6.127L299.355,109.983z
			 M55.796,555.867c-3.103,0-6.054-1.548-7.894-4.141c-1.819-2.563-2.259-5.757-1.207-8.761l35.947-102.71l73.19,73.19
			l-96.157,41.603C58.417,555.592,57.111,555.867,55.796,555.867z M83.061,442.088L47.64,543.296
			c-0.943,2.694-0.55,5.557,1.079,7.852c1.653,2.329,4.299,3.72,7.078,3.72c1.178,0,2.35-0.248,3.483-0.736l94.805-41.019
			L83.061,442.088z M188.693,487.135l-79.888-79.887L468.063,47.99c2.984-2.984,6.953-4.628,11.173-4.628s8.188,1.644,11.173,4.628
			l57.543,57.543c6.16,6.161,6.16,16.185,0,22.345L188.693,487.135z M110.219,407.248l78.474,78.473l358.551-358.55
			c5.771-5.771,5.771-15.16,0-20.931l-57.543-57.543c-2.796-2.795-6.513-4.335-10.466-4.335s-7.67,1.54-10.466,4.335
			L110.219,407.248z M352.712,104.169l-23.771-23.772l28.802-28.802l23.628,23.915L352.712,104.169z M330.355,80.397l22.357,22.358
			l27.248-27.249l-22.222-22.493L330.355,80.397z"/>
	</g>
</g>
<g>
</g>
<g>
</g>
<g>
</g>
<g>
</g>
<g>
</g>
<g>
</g>
<g>
</g>
<g>
</g>
<g>
</g>
<g>
</g>
<g>
</g>
<g>
</g>
<g>
</g>
<g>
</g>
<g>
</g>
</svg>
